<?xml version="1.0" encoding="utf-8"?><!DOCTYPE svg PUBLIC "-//W3C//DTD SVG 1.1//EN" "http://www.w3.org/Graphics/SVG/1.1/DTD/svg11.dtd"><svg version="1.1" id="Layer_1" xmlns="http://www.w3.org/2000/svg" xmlns:xlink="http://www.w3.org/1999/xlink" x="0px" y="0px" width="30em" height="24em" viewBox="0 0 30 24" style="enable-background:new 0 0 30 24;" xml:space="preserve"><style type="text/css"><![CDATA[ .st0{fill:#FFFFFF;} ]]></style><g><path class="st0" d="M18.965,3c2.757,0,5,2.243,5,5c0,2.757-2.243,5-5,5s-5-2.243-5-5C13.965,5.243,16.208,3,18.965,3 M18.965,0 c-4.418,0-8,3.582-8,8c0,4.418,3.582,8,8,8s8-3.582,8-8C26.965,3.582,23.383,0,18.965,0L18.965,0z"/></g><path class="st0" d="M12.942,16.71c0.521-0.522-0.105-1.186-0.848-1.929l0,0c-0.743-0.743-1.321-1.283-1.843-0.762L3.17,21.1 c-0.521,0.521-0.341,1.546,0.402,2.289l0,0c0.743,0.743,1.768,0.923,2.289,0.401L12.942,16.71z"/></svg>